<svg xmlns="http://www.w3.org/2000/svg" width="26" height="26" viewBox="0 0 26 26">
  <g id="account" transform="translate(-18 -740)">
    <rect id="Rectangle_2" data-name="Rectangle 2" width="26" height="26" transform="translate(18 740)" fill="none"/>
    <g id="_01_align_center" data-name="01 align center" transform="translate(22 745)">
      <path id="Path_8" data-name="Path 8" d="M15.589,20.994h-1.4V17.467A2.07,2.07,0,0,0,12.122,15.4H6.467A2.07,2.07,0,0,0,4.4,17.467v3.527H3V17.467A3.471,3.471,0,0,1,6.467,14h5.655a3.471,3.471,0,0,1,3.467,3.467Z" transform="translate(0 -4.208)" fill="#9099ac"/>
      <path id="Path_9" data-name="Path 9" d="M10.2,8.393a4.2,4.2,0,1,1,4.2-4.2A4.2,4.2,0,0,1,10.2,8.393Zm0-6.994a2.8,2.8,0,1,0,2.8,2.8A2.8,2.8,0,0,0,10.2,1.4Z" transform="translate(-0.902)" fill="#9099ac"/>
    </g>
  </g>
</svg>
