<svg xmlns="http://www.w3.org/2000/svg" width="26" height="26" viewBox="0 0 26 26">
  <g id="home" transform="translate(-18 -740)">
    <rect id="Rectangle_2" data-name="Rectangle 2" width="26" height="26" transform="translate(18 740)" fill="rgba(252,77,69,0)"/>
    <path id="Path_254714" data-name="Path 254714" d="M22.655,759.863v-7.839l4.426-5.109,3.334-2.356,2.567.828,5.67,5.88v8.291l-.563,1.413H33.445l.461-3.546-.924-2.25-2.567-1.136-2.395,1.629-.25,4.2v1.108l-4.674-.313Z" fill="#fdeec6"/>
    <path id="home_2_" data-name="home (2)" d="M16.958,6.657,11.395,1.093a3.673,3.673,0,0,0-5.187,0L.645,6.657A2.184,2.184,0,0,0,0,8.213v7.2a2.2,2.2,0,0,0,2.2,2.2H15.4a2.2,2.2,0,0,0,2.2-2.2v-7.2A2.184,2.184,0,0,0,16.958,6.657ZM11,16.146H6.6V13.261a2.2,2.2,0,1,1,4.4,0Zm5.134-.733a.733.733,0,0,1-.733.733H12.468V13.261a3.667,3.667,0,1,0-7.334,0v2.885H2.2a.733.733,0,0,1-.733-.733v-7.2a.739.739,0,0,1,.215-.519L7.245,2.133a2.206,2.206,0,0,1,3.113,0L15.921,7.7a.739.739,0,0,1,.215.516Z" transform="translate(22 743.979)" fill="#f7b917"/>
  </g>
</svg>
