<svg xmlns="http://www.w3.org/2000/svg" width="17.735" height="17.735" viewBox="0 0 17.735 17.735">
  <g id="translation_1_" data-name="translation (1)" transform="translate(0.1 0.1)">
    <path id="Path_14" data-name="Path 14" d="M16.1,6.165H11.28c.015-.169.024-.34.024-.513A5.653,5.653,0,0,0,2.828.755a.342.342,0,1,0,.343.593,4.967,4.967,0,1,1,2.481,9.27,4.911,4.911,0,0,1-3.114-1.1.343.343,0,0,0-.316-.06L1.313,9.7l.356-.783a.342.342,0,0,0-.035-.343,4.969,4.969,0,0,1-.282-5.407.343.343,0,1,0-.593-.344A5.655,5.655,0,0,0,.964,8.809l-.573,1.26a.342.342,0,0,0,.4.473l1.456-.381a5.65,5.65,0,0,0,4.193,1.087v3a1.44,1.44,0,0,0,1.438,1.438h4.844l2.166,1.772a.342.342,0,0,0,.559-.265V15.686H16.1a1.44,1.44,0,0,0,1.438-1.438V7.6A1.44,1.44,0,0,0,16.1,6.165Zm.753,8.083A.754.754,0,0,1,16.1,15H15.1a.342.342,0,0,0-.342.342V16.47l-1.692-1.384C12.976,15,12.895,15,12.711,15H7.877a.754.754,0,0,1-.753-.753V11.109A5.671,5.671,0,0,0,11.175,6.85H16.1a.754.754,0,0,1,.753.753Zm0,0" transform="translate(0 0)" fill="#1ebec8" stroke="#1ebec8" stroke-width="0.2"/>
    <path id="Path_15" data-name="Path 15" d="M291.234,253.456a.342.342,0,0,0-.146-.652h-.14l-1.1-2.517a.342.342,0,0,0-.627,0l-1.1,2.517h-.14a.342.342,0,0,0-.146.652l-.411.938a.342.342,0,1,0,.627.275l.518-1.18H290.5l.518,1.18a.342.342,0,1,0,.627-.275Zm-2.374-.652.67-1.527.67,1.527Zm0,0" transform="translate(-277.543 -241.517)" fill="#1ebec8" stroke="#1ebec8" stroke-width="0.2"/>
    <path id="Path_16" data-name="Path 16" d="M45.745,46.083a.343.343,0,1,0-.242-.1A.345.345,0,0,0,45.745,46.083Zm0,0" transform="translate(-43.847 -43.844)" fill="#1ebec8" stroke="#1ebec8" stroke-width="0.2"/>
    <path id="Path_17" data-name="Path 17" d="M100.311,90.206a.343.343,0,1,0,.329.6,3.922,3.922,0,0,0,1.7-1.839,3.923,3.923,0,0,0,1.7,1.839.343.343,0,1,0,.329-.6,3.239,3.239,0,0,1-1.645-2.357h1.521a.342.342,0,0,0,0-.685h-1.557V85.737a.342.342,0,0,0-.685,0v1.427h-1.237a.342.342,0,1,0,0,.685h1.2A3.239,3.239,0,0,1,100.311,90.206Zm0,0" transform="translate(-96.704 -82.47)" fill="#1ebec8" stroke="#1ebec8" stroke-width="0.2"/>
  </g>
</svg>
