<svg xmlns="http://www.w3.org/2000/svg" width="26" height="26" viewBox="0 0 26 26">
  <g id="my_order" data-name="my order" transform="translate(-18 -740)">
    <rect id="Rectangle_2" data-name="Rectangle 2" width="26" height="26" transform="translate(18 740)" fill="#fff"/>
    <path id="shopping-bag_2_" data-name="shopping-bag (2)" d="M14.688,4.2h-2.1A4.2,4.2,0,1,0,4.2,4.2H2.1A2.1,2.1,0,0,0,0,6.3v6.994a3.5,3.5,0,0,0,3.5,3.5h9.792a3.5,3.5,0,0,0,3.5-3.5V6.3A2.1,2.1,0,0,0,14.688,4.2Zm-6.3-2.8a2.8,2.8,0,0,1,2.8,2.8H5.6a2.8,2.8,0,0,1,2.8-2.8Zm6.994,11.891a2.1,2.1,0,0,1-2.1,2.1H3.5a2.1,2.1,0,0,1-2.1-2.1V6.3a.7.7,0,0,1,.7-.7H4.2v1.4a.7.7,0,0,0,1.4,0V5.6h5.6v1.4a.7.7,0,1,0,1.4,0V5.6h2.1a.7.7,0,0,1,.7.7Z" transform="translate(23 745)" fill="#9099ac"/>
  </g>
</svg>
