<svg xmlns="http://www.w3.org/2000/svg" width="26" height="26" viewBox="0 0 26 26">
  <g id="offers" transform="translate(-18 -740)">
    <rect id="Rectangle_2" data-name="Rectangle 2" width="26" height="26" transform="translate(18 740)" fill="none"/>
    <path id="badge-percent" d="M8.431,16.861a3.857,3.857,0,0,1-2.956-1.376,3.7,3.7,0,0,1-3-1.092,3.861,3.861,0,0,1-1.117-3.065A3.7,3.7,0,0,1,0,8.431,3.855,3.855,0,0,1,1.377,5.474a3.7,3.7,0,0,1,1.092-3A3.85,3.85,0,0,1,5.533,1.352,3.7,3.7,0,0,1,8.431,0a3.857,3.857,0,0,1,2.956,1.376,3.7,3.7,0,0,1,3,1.092,3.861,3.861,0,0,1,1.117,3.065,3.7,3.7,0,0,1,1.352,2.9,3.855,3.855,0,0,1-1.377,2.956,3.7,3.7,0,0,1-1.092,3,3.859,3.859,0,0,1-3.064,1.117A3.7,3.7,0,0,1,8.431,16.861ZM5.531,14.1a1.318,1.318,0,0,1,1.017.475,2.458,2.458,0,0,0,3.764,0,1.322,1.322,0,0,1,1.135-.471,2.459,2.459,0,0,0,2.661-2.661,1.318,1.318,0,0,1,.471-1.136,2.458,2.458,0,0,0,0-3.763,1.319,1.319,0,0,1-.471-1.136,2.459,2.459,0,0,0-2.661-2.661,1.314,1.314,0,0,1-1.136-.47,2.458,2.458,0,0,0-3.764,0,1.329,1.329,0,0,1-1.135.471A2.459,2.459,0,0,0,2.752,5.413a1.318,1.318,0,0,1-.471,1.136,2.458,2.458,0,0,0,0,3.763,1.319,1.319,0,0,1,.471,1.136,2.459,2.459,0,0,0,2.661,2.661c.04,0,.079,0,.119,0ZM6.323,5.62a.7.7,0,1,0,.7.7A.7.7,0,0,0,6.323,5.62Zm4.215,4.215a.7.7,0,1,0,.7.7A.7.7,0,0,0,10.538,9.836ZM7.61,10.928l2.81-4.215a.7.7,0,0,0-1.169-.78l-2.81,4.215a.7.7,0,0,0,1.169.78Z" transform="translate(23 745)" fill="#9099ac"/>
  </g>
</svg>
